<svg width="46" height="46" viewBox="0 0 46 46" fill="none" xmlns="http://www.w3.org/2000/svg">
<g clip-path="url(#clip0_93_8)">
<path d="M15.2465 0.080881C13.1981 -0.062869 11.4821 1.33869 10.9789 3.19846L9.91878 7.18752C9.9637 7.18752 10.0176 7.18752 10.0625 7.18752C25.9379 7.18752 38.8125 20.0621 38.8125 35.9375C38.8125 35.9824 38.8125 36.0364 38.8125 36.0813L42.8016 35.0211C44.6703 34.527 46.0629 32.802 45.9192 30.7535C44.7871 14.3301 31.67 1.21291 15.2465 0.080881ZM35.9196 36.8539C35.9285 36.5485 35.9375 36.243 35.9375 35.9375C35.9375 21.6434 24.3567 10.0625 10.0625 10.0625C9.75706 10.0625 9.45159 10.0715 9.14612 10.0805L0.0449533 44.1942C-0.0898123 44.6883 0.0539377 45.2184 0.413313 45.5778C0.772688 45.9371 1.30277 46.0809 1.79691 45.9461L35.9196 36.8539ZM15.8125 18.6875C16.575 18.6875 17.3063 18.9904 17.8455 19.5296C18.3846 20.0688 18.6875 20.8 18.6875 21.5625C18.6875 22.325 18.3846 23.0563 17.8455 23.5955C17.3063 24.1346 16.575 24.4375 15.8125 24.4375C15.05 24.4375 14.3188 24.1346 13.7796 23.5955C13.2404 23.0563 12.9375 22.325 12.9375 21.5625C12.9375 20.8 13.2404 20.0688 13.7796 19.5296C14.3188 18.9904 15.05 18.6875 15.8125 18.6875ZM21.5625 30.1875C21.5625 29.425 21.8654 28.6938 22.4046 28.1546C22.9438 27.6154 23.675 27.3125 24.4375 27.3125C25.2 27.3125 25.9313 27.6154 26.4705 28.1546C27.0096 28.6938 27.3125 29.425 27.3125 30.1875C27.3125 30.95 27.0096 31.6813 26.4705 32.2205C25.9313 32.7596 25.2 33.0625 24.4375 33.0625C23.675 33.0625 22.9438 32.7596 22.4046 32.2205C21.8654 31.6813 21.5625 30.95 21.5625 30.1875ZM8.62503 34.5C8.62503 33.7375 8.92793 33.0063 9.4671 32.4671C10.0063 31.9279 10.7375 31.625 11.5 31.625C12.2625 31.625 12.9938 31.9279 13.533 32.4671C14.0721 33.0063 14.375 33.7375 14.375 34.5C14.375 35.2625 14.0721 35.9938 13.533 36.533C12.9938 37.0721 12.2625 37.375 11.5 37.375C10.7375 37.375 10.0063 37.0721 9.4671 36.533C8.92793 35.9938 8.62503 35.2625 8.62503 34.5Z" fill="#FFFFFF"/>
</g>
<defs>
<clipPath id="clip0_93_8">
<rect width="46" height="46" fill="white"/>
</clipPath>
</defs>
</svg>
